<?xml version="1.0" encoding="utf-8"?>
<!-- Generator: Adobe Illustrator 24.2.0, SVG Export Plug-In . SVG Version: 6.00 Build 0)  -->
<svg version="1.1" id="Layer_1" xmlns="http://www.w3.org/2000/svg" xmlns:xlink="http://www.w3.org/1999/xlink" x="0px" y="0px"
	 viewBox="0 0 432 288" style="enable-background:new 0 0 432 288;" xml:space="preserve">
<style type="text/css">
	.st0{fill:#333132;}
</style>
<g>
	<path class="st0" d="M183.23,196.57c0,0-0.33,0.29-1,0.76c-0.68,0.46-1.7,1.09-3.08,1.74c-1.39,0.63-3.15,1.28-5.24,1.7
		c-2.09,0.42-4.53,0.59-7.15,0.33c-2.62-0.25-5.41-0.99-8.17-2.18c-1.38-0.6-2.76-1.3-4.11-2.11c-0.67-0.41-1.34-0.84-2-1.3
		c-0.65-0.45-1.31-0.91-1.98-1.37c-2.65-1.84-5.44-3.68-8.33-5.44c-2.89-1.76-5.91-3.42-9.07-4.76c-1.58-0.67-3.19-1.25-4.83-1.67
		c-1.64-0.41-3.33-0.66-4.98-0.53c-3.25,0.36-6.54,1.62-8.47,4.01c-0.98,1.18-1.62,2.58-2.03,4.02c-0.2,0.72-0.38,1.48-0.44,2.17
		c-0.07,0.72-0.05,1.44,0.03,2.14c0.34,2.83,1.61,5.39,3.25,7.26c0.83,0.93,1.77,1.69,2.77,2.2c0.5,0.26,1.01,0.44,1.55,0.59
		c0.51,0.15,1.03,0.25,1.53,0.32c1.01,0.13,1.96,0.04,2.8-0.18c0.84-0.23,1.56-0.61,2.15-1.04c1.18-0.87,1.82-1.88,2.19-2.57
		c0.18-0.35,0.3-0.63,0.37-0.82c0.07-0.19,0.1-0.29,0.1-0.29l0-0.01c0.03-0.08,0.11-0.12,0.19-0.09c0.07,0.03,0.11,0.11,0.09,0.18
		c0,0-0.03,0.11-0.09,0.31c-0.07,0.2-0.17,0.5-0.35,0.88c-0.17,0.38-0.42,0.83-0.78,1.31c-0.35,0.49-0.82,1.01-1.43,1.5
		c-0.61,0.49-1.38,0.93-2.29,1.21c-0.91,0.28-1.95,0.4-3.04,0.29c-0.55-0.05-1.09-0.14-1.66-0.3c-0.54-0.14-1.12-0.33-1.68-0.6
		c-1.12-0.53-2.16-1.33-3.07-2.31c-0.92-0.98-1.7-2.15-2.32-3.45c-0.62-1.3-1.08-2.74-1.28-4.27c-0.1-0.77-0.13-1.55-0.07-2.35
		c0.07-0.83,0.24-1.57,0.45-2.36c0.42-1.55,1.11-3.11,2.23-4.42c1.1-1.32,2.6-2.28,4.2-2.92c0.8-0.32,1.63-0.56,2.47-0.75l0.64-0.13
		c0.21-0.04,0.41-0.08,0.63-0.11c0.22-0.03,0.43-0.06,0.65-0.08c0.22-0.02,0.44-0.04,0.65-0.05c1.75-0.08,3.49,0.2,5.18,0.61
		c1.69,0.43,3.33,1.02,4.93,1.69c1.6,0.67,3.16,1.44,4.69,2.24c1.53,0.8,3.03,1.64,4.49,2.51c2.93,1.74,5.74,3.56,8.43,5.38
		c1.35,0.91,2.63,1.82,3.96,2.6c1.32,0.79,2.66,1.47,4,2.06c2.69,1.16,5.39,1.84,7.91,2.13c2.53,0.29,4.88,0.15,6.92-0.21
		c2.04-0.35,3.78-0.91,5.15-1.48c1.38-0.56,2.42-1.13,3.1-1.54c0.34-0.21,0.6-0.37,0.77-0.49c0.17-0.12,0.25-0.18,0.25-0.18
		c0.06-0.05,0.16-0.04,0.21,0.03C183.29,196.43,183.29,196.52,183.23,196.57L183.23,196.57z"/>
	<path class="st0" d="M169.65,192.63c0,0-0.14,0.08-0.42,0.22c-0.27,0.15-0.71,0.36-1.28,0.61c-0.57,0.25-1.29,0.51-2.17,0.73
		c-0.88,0.21-1.92,0.38-3.1,0.3c-0.59-0.03-1.2-0.14-1.83-0.34c-0.62-0.2-1.25-0.52-1.8-0.99c-0.55-0.47-1.02-1.14-1.13-1.96
		c-0.05-0.4,0-0.84,0.16-1.23c0.17-0.39,0.41-0.74,0.74-1.03c0.08-0.06,0.15-0.13,0.23-0.19l0.3-0.18c0.1-0.07,0.21-0.08,0.32-0.12
		l0.16-0.05c0.05-0.01,0.11-0.02,0.17-0.03c0.45-0.09,0.91-0.02,1.34,0.1c0.86,0.25,1.64,0.76,2.32,1.37
		c1.35,1.23,2.43,2.95,2.77,4.97c0.18,1,0.09,2.08-0.27,3.09c-0.07,0.26-0.21,0.49-0.32,0.74c-0.12,0.24-0.28,0.46-0.42,0.69
		c-0.17,0.21-0.33,0.43-0.52,0.63c-0.2,0.19-0.38,0.4-0.59,0.57c-0.21,0.17-0.42,0.35-0.65,0.51l-0.34,0.23l-0.17,0.12l-0.09,0.06
		l-0.04,0.03c-0.01,0.01-0.06,0.03-0.06,0.03c-0.24,0.13-0.48,0.25-0.71,0.38c-0.25,0.12-0.53,0.21-0.8,0.32
		c-1.08,0.38-2.25,0.5-3.41,0.42c-1.16-0.07-2.31-0.34-3.43-0.7c-1.12-0.36-2.21-0.83-3.29-1.33c-2.16-1.01-4.27-2.19-6.43-3.32
		c-2.16-1.11-4.39-2.19-6.73-2.87c-1.17-0.34-2.37-0.58-3.58-0.65c-0.3,0-0.6-0.03-0.9-0.02l-0.9,0.05l-0.89,0.13
		c-0.26,0.05-0.64,0.12-0.9,0.19c-0.28,0.07-0.57,0.16-0.86,0.24l-0.42,0.15l-0.41,0.17c-0.54,0.24-1.06,0.54-1.52,0.92
		c-0.45,0.38-0.86,0.83-1.14,1.36c-0.07,0.13-0.14,0.27-0.2,0.41l-0.04,0.1l-0.04,0.11l-0.08,0.23c-0.08,0.28-0.15,0.58-0.17,0.88
		c-0.05,0.59,0.11,1.21,0.54,1.57c0.43,0.36,1.09,0.4,1.59,0.11c0.51-0.28,0.84-0.83,0.93-1.43c0.01-0.07,0.02-0.15,0.03-0.23
		l0.01-0.06c0-0.02,0-0.02,0-0.05l0-0.12c0.01-0.17-0.01-0.31-0.02-0.46c-0.04-0.31-0.1-0.62-0.21-0.91
		c-0.41-1.19-1.3-2.18-2.38-2.82c-1.09-0.64-2.36-0.95-3.62-1c-1.27-0.07-2.54,0.09-3.78,0.38c-1.24,0.28-2.45,0.69-3.63,1.17
		c-1.18,0.48-2.3,1.05-3.44,1.64c-0.57,0.29-1.13,0.58-1.7,0.86c-0.59,0.26-1.17,0.54-1.75,0.8c-2.34,1.02-4.74,1.82-7.18,2.36
		c-2.43,0.53-4.89,0.8-7.31,0.76c-1.21-0.05-2.4-0.12-3.57-0.33c-0.59-0.08-1.16-0.22-1.74-0.34c-0.29-0.06-0.57-0.15-0.85-0.23
		c-0.28-0.08-0.56-0.15-0.84-0.25c-0.28-0.09-0.55-0.19-0.82-0.28c-0.27-0.11-0.53-0.22-0.8-0.33c-0.13-0.06-0.27-0.11-0.4-0.17
		l-0.39-0.19c-0.25-0.13-0.52-0.24-0.76-0.39c-1-0.55-1.93-1.2-2.77-1.94c-0.84-0.74-1.55-1.6-2.14-2.51
		c-0.14-0.23-0.3-0.46-0.42-0.7c-0.12-0.24-0.24-0.48-0.36-0.72c-0.2-0.5-0.41-0.99-0.53-1.5c-0.07-0.25-0.14-0.51-0.17-0.77
		c-0.04-0.26-0.09-0.51-0.12-0.77c-0.02-0.26-0.03-0.51-0.05-0.77l-0.01-0.19l0.01-0.19l0.01-0.38l0.02-0.37l0-0.05
		c0-0.03,0,0,0.01-0.08l0.01-0.09l0.02-0.17c0.02-0.12,0.03-0.22,0.05-0.35l0.09-0.39c0.06-0.27,0.16-0.49,0.24-0.74
		c0.1-0.23,0.2-0.46,0.32-0.68c0.48-0.87,1.15-1.61,1.93-2.15c0.78-0.53,1.65-0.87,2.53-1c0.22-0.04,0.44-0.05,0.65-0.06
		c0.22-0.02,0.43,0,0.64,0.01l0.16,0.01l0.04,0c0.01,0,0.08,0.01,0.07,0.01l0.07,0.01l0.28,0.04c0.21,0.05,0.46,0.1,0.65,0.18
		c0.81,0.28,1.49,0.79,1.99,1.39c0.49,0.61,0.8,1.31,0.94,2.01c0.06,0.35,0.09,0.7,0.07,1.03c0,0.08-0.01,0.17-0.01,0.25l0,0.03
		c0,0.02,0,0,0,0.05l-0.01,0.05l-0.02,0.11c-0.01,0.13-0.07,0.33-0.12,0.49c-0.1,0.32-0.25,0.6-0.42,0.86
		c-0.18,0.25-0.38,0.48-0.6,0.67c-0.45,0.38-0.96,0.6-1.46,0.7c-0.5,0.09-0.97,0.06-1.38-0.05c-0.42-0.11-0.76-0.31-1.03-0.53
		c-0.55-0.45-0.74-0.99-0.81-1.34c-0.03-0.18-0.04-0.31-0.04-0.4c0-0.09,0-0.14,0-0.14c0-0.14,0.11-0.25,0.24-0.25
		c0.13,0,0.24,0.1,0.25,0.22l0,0.03c0,0,0,0.04,0.01,0.11c0,0.07,0.02,0.17,0.06,0.31c0.07,0.26,0.25,0.65,0.68,0.96
		c0.21,0.15,0.49,0.29,0.8,0.35c0.32,0.06,0.69,0.06,1.06-0.03c0.37-0.1,0.74-0.29,1.07-0.58c0.16-0.15,0.3-0.32,0.43-0.52
		c0.12-0.2,0.21-0.41,0.28-0.65c0.12-0.45,0.11-1.02-0.01-1.55c-0.13-0.54-0.4-1.07-0.79-1.52c-0.4-0.45-0.92-0.81-1.52-1
		l-0.11-0.04l-0.11-0.02c-0.07-0.02-0.14-0.03-0.22-0.05l-0.28-0.03l-0.07-0.01c-0.04,0,0.01,0,0,0l-0.03,0l-0.13,0
		c-0.17,0-0.35-0.01-0.52,0.01c-0.17,0.01-0.35,0.03-0.52,0.07c-0.7,0.13-1.38,0.41-1.99,0.85c-0.6,0.45-1.12,1.04-1.49,1.73
		c-0.09,0.18-0.17,0.36-0.24,0.54c-0.06,0.19-0.14,0.38-0.17,0.56l-0.07,0.28c-0.02,0.1-0.03,0.23-0.05,0.34l-0.02,0.17l-0.01,0.09
		c0.01-0.06,0,0.01,0,0l0,0.04l-0.01,0.33l-0.01,0.33l0,0.16l0.01,0.16c0.02,0.22,0.03,0.44,0.05,0.66
		c0.03,0.22,0.08,0.44,0.11,0.66c0.03,0.22,0.1,0.44,0.16,0.66c0.1,0.44,0.29,0.86,0.46,1.29c0.1,0.21,0.21,0.42,0.32,0.62
		c0.11,0.21,0.25,0.4,0.37,0.6c0.52,0.79,1.15,1.54,1.91,2.2c0.75,0.65,1.58,1.26,2.49,1.76c0.22,0.13,0.47,0.24,0.7,0.36l0.35,0.18
		c0.12,0.06,0.24,0.1,0.37,0.16c0.25,0.1,0.49,0.21,0.74,0.31c0.25,0.09,0.51,0.18,0.76,0.27c0.25,0.1,0.52,0.17,0.78,0.24
		c0.26,0.07,0.52,0.15,0.79,0.22c0.54,0.11,1.08,0.25,1.63,0.33c1.1,0.2,2.24,0.28,3.38,0.33c2.3,0.06,4.66-0.15,7.03-0.59
		c2.37-0.44,4.73-1.13,7.06-2.04c0.58-0.23,1.15-0.48,1.73-0.72c0.57-0.26,1.15-0.54,1.72-0.81c1.14-0.55,2.33-1.11,3.54-1.57
		c1.22-0.46,2.47-0.85,3.77-1.11c1.29-0.26,2.62-0.4,3.95-0.29c1.33,0.09,2.66,0.45,3.82,1.15c1.15,0.7,2.1,1.78,2.54,3.07
		c0.22,0.64,0.32,1.34,0.21,2.03c-0.05,0.35-0.17,0.69-0.36,0.99c-0.19,0.3-0.46,0.57-0.78,0.74c-0.32,0.18-0.69,0.27-1.06,0.25
		c-0.37-0.01-0.73-0.16-1.03-0.39c-0.3-0.23-0.51-0.55-0.63-0.89c-0.12-0.34-0.17-0.7-0.18-1.05c-0.01-0.35,0.05-0.69,0.12-1.04
		l0.06-0.24l0.03-0.12c0.01-0.06,0.03-0.09,0.04-0.13c0.05-0.17,0.11-0.33,0.17-0.5c0.26-0.65,0.65-1.25,1.13-1.77
		c0.48-0.52,1.05-0.94,1.65-1.29c0.61-0.34,1.24-0.6,1.92-0.79c0.36-0.11,0.62-0.16,0.98-0.23l1.01-0.14
		c0.34-0.02,0.68-0.04,1.01-0.05c0.34-0.01,0.67,0.02,1.01,0.02c1.34,0.08,2.64,0.36,3.88,0.74c2.49,0.76,4.74,1.96,6.89,3.14
		c2.15,1.2,4.21,2.45,6.28,3.51c2.07,1.06,4.2,1.96,6.37,2.16c1.08,0.1,2.16,0,3.14-0.32c0.24-0.09,0.48-0.16,0.72-0.27
		c0.24-0.12,0.48-0.24,0.72-0.37c0.21-0.14,0.43-0.27,0.64-0.41c0.21-0.15,0.4-0.32,0.61-0.47c0.2-0.16,0.36-0.35,0.55-0.52
		c0.17-0.18,0.32-0.38,0.48-0.57c0.13-0.21,0.28-0.41,0.39-0.63c0.1-0.22,0.23-0.43,0.3-0.66c0.33-0.91,0.42-1.89,0.27-2.82
		c-0.3-1.87-1.31-3.52-2.57-4.7c-0.31-0.3-0.66-0.55-1.01-0.78c-0.18-0.1-0.36-0.22-0.55-0.29l-0.28-0.12l-0.29-0.09
		c-0.38-0.1-0.77-0.16-1.13-0.09c-0.05,0.01-0.09,0.01-0.14,0.02l-0.13,0.04c-0.08,0.03-0.18,0.04-0.25,0.09
		c-0.07,0.04-0.15,0.08-0.22,0.12c-0.08,0.05-0.15,0.13-0.23,0.19c-0.26,0.23-0.48,0.54-0.62,0.86c-0.13,0.32-0.17,0.67-0.13,1
		c0.09,0.67,0.49,1.26,0.98,1.68c0.5,0.42,1.07,0.72,1.65,0.9c0.58,0.19,1.16,0.28,1.72,0.31c1.11,0.06,2.11-0.1,2.95-0.31
		c0.84-0.22,1.54-0.48,2.09-0.72c0.55-0.24,0.96-0.45,1.24-0.6c0.28-0.15,0.42-0.23,0.42-0.23c0.12-0.07,0.28-0.02,0.34,0.1
		C169.82,192.41,169.77,192.57,169.65,192.63L169.65,192.63z"/>
	<path class="st0" d="M78.56,191.8c0,0-0.04-0.08-0.12-0.23c-0.07-0.16-0.2-0.36-0.36-0.62c-0.1-0.12-0.19-0.26-0.31-0.4
		c-0.13-0.13-0.26-0.29-0.42-0.43c-0.31-0.29-0.72-0.56-1.19-0.78c-0.47-0.22-1.02-0.38-1.61-0.42c-0.59-0.04-1.22,0.03-1.82,0.24
		l-0.21,0.07l-0.24,0.11c-0.08,0.03-0.15,0.07-0.21,0.11c-0.07,0.04-0.13,0.07-0.2,0.12c-0.27,0.18-0.51,0.4-0.72,0.65
		c-0.41,0.51-0.68,1.14-0.74,1.8c-0.04,0.33-0.01,0.66,0.05,0.98c0.03,0.16,0.08,0.32,0.13,0.47l0.01,0.03l0,0.01l0,0.01
		c0,0.01-0.01-0.02,0-0.01l0.03,0.06l0.05,0.12c0.04,0.09,0.07,0.14,0.11,0.21c0.31,0.54,0.85,0.93,1.43,1.09
		c0.58,0.17,1.19,0.1,1.7-0.14c0.22-0.11,0.44-0.29,0.59-0.48c0.16-0.2,0.27-0.43,0.33-0.66c0.12-0.47,0.05-0.92-0.14-1.29
		c-0.17-0.32-0.48-0.54-0.75-0.62c-0.06-0.03-0.13-0.04-0.2-0.05c-0.06-0.01-0.12-0.03-0.18-0.03c-0.11,0.01-0.21-0.01-0.29,0.01
		c-0.15,0.03-0.24,0.05-0.24,0.05l-0.02,0c-0.06,0.01-0.12-0.03-0.13-0.09c-0.01-0.06,0.02-0.11,0.07-0.13c0,0,0.09-0.03,0.27-0.09
		c0.09-0.03,0.2-0.03,0.34-0.05c0.07-0.01,0.14,0.01,0.22,0.01c0.08,0.01,0.16,0.01,0.24,0.04c0.34,0.08,0.74,0.29,1.03,0.74
		c0.26,0.4,0.39,0.99,0.27,1.59c-0.12,0.6-0.51,1.2-1.17,1.56c-0.6,0.32-1.39,0.42-2.12,0.23c-0.74-0.19-1.42-0.68-1.84-1.38
		c-0.05-0.09-0.11-0.19-0.14-0.27l-0.05-0.12l-0.03-0.06l-0.01-0.02l0-0.01l-0.01-0.02l-0.01-0.04c-0.06-0.19-0.12-0.37-0.16-0.57
		c-0.07-0.39-0.1-0.79-0.05-1.18c0.08-0.79,0.41-1.54,0.91-2.14c0.26-0.29,0.54-0.55,0.87-0.76c0.08-0.05,0.17-0.1,0.25-0.15
		c0.09-0.05,0.17-0.1,0.25-0.12l0.24-0.1c0.11-0.04,0.18-0.06,0.27-0.09c0.69-0.21,1.4-0.26,2.05-0.19
		c0.65,0.07,1.25,0.27,1.75,0.53c0.51,0.26,0.92,0.59,1.24,0.92c0.17,0.16,0.29,0.33,0.42,0.48c0.12,0.16,0.21,0.31,0.3,0.45
		c0.16,0.29,0.27,0.52,0.33,0.68c0.06,0.16,0.1,0.24,0.1,0.24c0.02,0.05,0,0.1-0.05,0.12C78.63,191.86,78.58,191.84,78.56,191.8z"/>
	<path class="st0" d="M97.6,200.42c0,0-0.09,0.02-0.25,0.06c-0.16,0.05-0.42,0.09-0.75,0.13c-0.16,0-0.35,0.02-0.54,0.01
		c-0.2-0.02-0.42-0.02-0.64-0.06c-0.46-0.07-0.97-0.22-1.48-0.48c-0.51-0.26-1.02-0.64-1.46-1.13c-0.44-0.5-0.81-1.11-1.03-1.81
		l-0.04-0.13l-0.02-0.07l-0.01-0.03l-0.01-0.02l-0.01-0.03l-0.05-0.25c-0.02-0.08-0.03-0.18-0.04-0.28c-0.01-0.1-0.03-0.2-0.03-0.3
		c-0.02-0.39,0.03-0.78,0.12-1.16c0.2-0.76,0.63-1.48,1.24-2.01c0.3-0.27,0.65-0.48,1.01-0.65c0.18-0.09,0.37-0.15,0.56-0.2
		L94.2,192l0.02-0.01l0.01,0l0.03-0.01l0.07-0.01l0.13-0.03c0.08-0.02,0.21-0.03,0.31-0.04c0.83-0.06,1.64,0.22,2.23,0.73
		c0.59,0.5,0.96,1.22,1.05,1.91c0.08,0.76-0.19,1.44-0.63,1.89c-0.43,0.46-1.01,0.69-1.49,0.7c-0.55,0.02-0.96-0.2-1.23-0.43
		c-0.07-0.05-0.13-0.12-0.18-0.18c-0.05-0.06-0.11-0.11-0.13-0.18c-0.06-0.12-0.13-0.22-0.15-0.31c-0.05-0.18-0.08-0.27-0.08-0.27
		c-0.02-0.07,0.02-0.15,0.09-0.17c0.07-0.02,0.13,0.01,0.16,0.07l0.01,0.03c0,0,0.03,0.08,0.1,0.22c0.03,0.07,0.1,0.14,0.16,0.23
		c0.03,0.05,0.08,0.08,0.12,0.13c0.04,0.04,0.09,0.09,0.15,0.13c0.06,0.03,0.12,0.08,0.19,0.11c0.07,0.03,0.14,0.06,0.22,0.09
		c0.08,0.01,0.17,0.04,0.25,0.04c0.08-0.01,0.15,0.01,0.25-0.01c0.4-0.06,0.8-0.26,1.1-0.62c0.15-0.18,0.26-0.39,0.33-0.63
		c0.07-0.23,0.09-0.51,0.05-0.73c-0.09-0.54-0.38-1.06-0.84-1.43c-0.45-0.37-1.07-0.58-1.67-0.53c-0.07,0.01-0.13,0-0.22,0.03
		l-0.13,0.03l-0.07,0.01c-0.02,0,0.02,0,0.01,0l-0.01,0l-0.01,0l-0.03,0.01c-0.15,0.04-0.31,0.09-0.45,0.16
		c-0.29,0.13-0.58,0.29-0.82,0.51c-0.5,0.42-0.85,1-1.03,1.61c-0.08,0.31-0.13,0.63-0.12,0.94c0,0.08,0.01,0.15,0.01,0.22
		c0,0.07,0.01,0.15,0.03,0.24l0.05,0.25l0.06,0.21c0.17,0.61,0.47,1.16,0.84,1.61c0.37,0.46,0.8,0.82,1.25,1.08
		c0.44,0.27,0.89,0.44,1.31,0.53c0.2,0.06,0.4,0.07,0.59,0.1c0.18,0.02,0.35,0.02,0.51,0.03c0.3-0.01,0.54-0.02,0.71-0.05
		c0.17-0.02,0.26-0.04,0.26-0.04c0.06-0.01,0.12,0.03,0.13,0.09C97.69,200.35,97.65,200.4,97.6,200.42z"/>
	<path class="st0" d="M118.47,203.69c0,0-0.06-0.01-0.17-0.02c-0.11-0.01-0.28-0.04-0.49-0.09c-0.21-0.06-0.46-0.15-0.72-0.3
		c-0.27-0.15-0.55-0.35-0.8-0.63c-0.25-0.28-0.48-0.63-0.64-1.03c-0.16-0.41-0.25-0.87-0.23-1.35c0-0.06,0-0.11,0.01-0.19l0.02-0.17
		c0.01-0.11,0.05-0.25,0.09-0.37c0.08-0.24,0.2-0.47,0.34-0.69c0.3-0.43,0.73-0.77,1.22-0.96c0.25-0.1,0.51-0.15,0.77-0.17
		c0.13-0.01,0.26-0.01,0.39,0l0.02,0l0.01,0l0.01,0c0.01,0-0.02,0,0.03,0l0.04,0.01l0.09,0.02l0.17,0.04
		c0.55,0.15,0.98,0.51,1.23,0.96c0.25,0.45,0.31,0.97,0.21,1.42c-0.01,0.09-0.07,0.22-0.12,0.33c-0.05,0.12-0.13,0.2-0.19,0.29
		c-0.07,0.09-0.16,0.16-0.24,0.23c-0.09,0.06-0.18,0.12-0.27,0.17c-0.37,0.18-0.78,0.19-1.08,0.09c-0.35-0.11-0.55-0.34-0.66-0.55
		c-0.03-0.05-0.05-0.1-0.07-0.15c-0.02-0.05-0.04-0.09-0.04-0.14c-0.01-0.09-0.03-0.17-0.02-0.23c0.01-0.12,0.01-0.19,0.01-0.19
		c0-0.05,0.05-0.09,0.1-0.08c0.05,0,0.08,0.04,0.08,0.08l0,0.02c0,0,0,0.05,0.01,0.16c0.01,0.1,0.05,0.24,0.15,0.4
		c0.09,0.15,0.29,0.31,0.5,0.35c0.26,0.05,0.55,0.03,0.82-0.13c0.06-0.04,0.12-0.09,0.19-0.14c0.05-0.06,0.11-0.11,0.16-0.18
		c0.04-0.07,0.1-0.14,0.12-0.21c0.03-0.07,0.06-0.12,0.08-0.24c0.06-0.34,0.01-0.74-0.19-1.07c-0.19-0.33-0.53-0.6-0.89-0.7
		c-0.42-0.12-0.85-0.08-1.25,0.06c-0.4,0.15-0.75,0.42-1,0.76c-0.12,0.17-0.22,0.36-0.29,0.55c-0.03,0.1-0.06,0.18-0.08,0.29
		l-0.03,0.17l-0.01,0.14c-0.03,0.41,0.02,0.82,0.14,1.19c0.12,0.36,0.31,0.68,0.53,0.95c0.21,0.26,0.45,0.48,0.68,0.63
		c0.23,0.16,0.46,0.26,0.64,0.33c0.19,0.06,0.34,0.11,0.45,0.13c0.11,0.02,0.17,0.04,0.17,0.04c0.04,0.01,0.07,0.05,0.06,0.09
		C118.54,203.66,118.51,203.69,118.47,203.69z"/>
	<path class="st0" d="M135.38,193.26c0,0,0.09-0.01,0.26-0.04c0.16-0.04,0.42-0.06,0.76-0.07c0.16,0.01,0.35,0.01,0.54,0.03
		c0.2,0.03,0.41,0.05,0.63,0.12c0.45,0.11,0.95,0.3,1.43,0.6c0.49,0.3,0.96,0.72,1.36,1.25c0.4,0.53,0.71,1.18,0.88,1.89l0.03,0.13
		l0.02,0.07l0.01,0.03l0,0.02l0.01,0.03l0.03,0.26c0.01,0.08,0.02,0.18,0.02,0.28c0,0.1,0.01,0.2,0,0.3
		c-0.01,0.39-0.09,0.77-0.22,1.15c-0.26,0.75-0.75,1.42-1.4,1.9c-0.32,0.24-0.69,0.43-1.06,0.56c-0.19,0.07-0.38,0.12-0.58,0.16
		l-0.04,0.01l-0.02,0l-0.01,0l-0.03,0l-0.07,0.01l-0.13,0.01c-0.08,0.01-0.21,0.01-0.31,0.01c-0.83-0.01-1.62-0.36-2.16-0.91
		c-0.55-0.55-0.86-1.29-0.88-1.99c-0.02-0.77,0.31-1.42,0.78-1.84c0.47-0.42,1.06-0.6,1.54-0.57c0.55,0.02,0.94,0.27,1.19,0.53
		c0.07,0.06,0.11,0.13,0.16,0.19c0.04,0.07,0.1,0.12,0.12,0.19c0.05,0.13,0.11,0.23,0.13,0.32c0.04,0.18,0.06,0.28,0.06,0.28
		c0.01,0.07-0.03,0.14-0.1,0.16c-0.07,0.01-0.13-0.02-0.15-0.09l-0.01-0.03c0,0-0.03-0.08-0.08-0.22c-0.02-0.07-0.08-0.15-0.14-0.25
		c-0.02-0.05-0.07-0.09-0.11-0.14c-0.04-0.05-0.08-0.1-0.14-0.14c-0.06-0.04-0.11-0.09-0.18-0.13c-0.07-0.03-0.14-0.07-0.21-0.1
		c-0.08-0.02-0.16-0.05-0.24-0.07c-0.08,0-0.15-0.02-0.25-0.02c-0.4,0.02-0.82,0.19-1.15,0.52c-0.16,0.17-0.3,0.37-0.39,0.6
		c-0.09,0.22-0.13,0.5-0.11,0.73c0.05,0.55,0.29,1.09,0.72,1.5c0.42,0.41,1.02,0.67,1.62,0.66c0.08,0,0.13,0.01,0.23-0.01l0.13-0.02
		l0.07-0.01c0.02,0-0.02,0-0.01,0l0.01,0l0.01,0l0.03-0.01c0.16-0.03,0.31-0.06,0.47-0.12c0.3-0.1,0.6-0.24,0.86-0.44
		c0.53-0.38,0.93-0.92,1.16-1.52c0.11-0.3,0.18-0.61,0.2-0.93c0.01-0.08,0-0.15,0.01-0.23c0-0.07,0-0.15-0.01-0.24l-0.03-0.26
		l-0.04-0.22c-0.12-0.62-0.37-1.19-0.7-1.68c-0.33-0.49-0.73-0.88-1.15-1.18c-0.42-0.3-0.85-0.51-1.26-0.64
		c-0.2-0.08-0.4-0.11-0.58-0.15c-0.18-0.04-0.35-0.05-0.5-0.07c-0.3-0.01-0.54-0.03-0.72-0.01c-0.17,0.01-0.26,0.02-0.26,0.02
		c-0.06,0-0.12-0.04-0.12-0.1C135.28,193.32,135.33,193.27,135.38,193.26z"/>
	<path class="st0" d="M182.91,197.1l1.03-1.34l-1.51,0.76l-0.01-0.01c0,0-1.04-2.46,0.61-3.25c0.6-0.29,1.39-0.27,2.21-0.24
		c0.83,0.03,1.7,0.06,2.47-0.2c-0.89,1.36-0.75,3.4-1.61,4.43C184.95,198.64,182.97,197.15,182.91,197.1z"/>
</g>
</svg>
